<svg width="321" height="41" viewBox="0 0 321 41" fill="none" xmlns="http://www.w3.org/2000/svg">
<path fill-rule="evenodd" clip-rule="evenodd" d="M321.001 11.2734C317.542 -0.456778 311.281 0.00242089 311.281 0.00242089H288.382V11.2734H321.001Z" fill="url(#paint0_linear_2172_789867)"/>
<path fill-rule="evenodd" clip-rule="evenodd" d="M0.997673 11.2734C4.45635 -0.456778 10.7178 0.00242089 10.7178 0.00242089H33.6162V11.2734H0.997673Z" fill="url(#paint1_linear_2172_789867)"/>
<path d="M31.8817 26.065C33.571 28.0682 35.4542 29.9134 37.4991 31.5728C44.7613 37.4599 54.0846 41 64.2525 41C70.4276 41 76.6067 41 82.7818 41C100.45 41 146.917 41 164.586 41C182.675 41 227.234 41 245.327 41C250.229 41 255.131 41 260.033 41C269.033 41 277.374 38.2264 284.204 33.5088C287.287 31.3792 290.068 28.8505 292.46 26.0018C293.382 24.9074 294.242 23.7655 295.043 22.5802C296.623 20.2452 297.96 17.7441 299.031 15.1048C299.383 14.2396 299.682 13.3545 299.941 12.4616C300.207 11.541 300.765 9.88947 301.739 8.1194C302.539 6.65751 303.618 5.11265 305.049 3.82461C306.027 2.93958 306.572 2.30741 307.575 1.695C308.674 1.02332 310.404 0.11458 311.147 0.00790209C306.71 0.00790209 302.273 0.00790209 297.835 0.00790209C282.527 0.00790209 267.222 0.00790209 251.914 0.00790209C231.695 0.00790209 183.846 0.00790209 163.628 0.00790209C143.882 0.00790209 96.502 0.00790209 76.7603 0.00790209C58.7523 0 40.7443 0 22.7403 0C19.6124 0 16.4844 0 13.3564 0C14.2779 0.399056 15.3407 0.916642 16.44 1.58832C17.4422 2.20073 18.4727 2.93563 19.4548 3.82066C20.8692 5.1008 21.9199 6.6259 22.6837 8.07594C23.5647 9.74723 24.0699 11.3158 24.3286 12.2719C24.5751 13.1965 24.862 14.1131 25.2176 15.0021C26.3047 17.7046 27.6747 20.2649 29.2953 22.6513C30.0955 23.8327 30.9603 24.9746 31.8817 26.065Z" fill="url(#paint2_linear_2172_789867)"/>
<defs>
<linearGradient id="paint0_linear_2172_789867" x1="304.154" y1="3.07461" x2="304.154" y2="11.2734" gradientUnits="userSpaceOnUse">
<stop stop-color="#CA8031"/>
<stop offset="1" stop-color="#E77E0E"/>
</linearGradient>
<linearGradient id="paint1_linear_2172_789867" x1="17.8443" y1="3.07461" x2="17.8443" y2="11.2734" gradientUnits="userSpaceOnUse">
<stop stop-color="#CA8031"/>
<stop offset="1" stop-color="#E77E0E"/>
</linearGradient>
<linearGradient id="paint2_linear_2172_789867" x1="162.252" y1="0" x2="162.252" y2="41" gradientUnits="userSpaceOnUse">
<stop stop-color="#E9B043"/>
<stop offset="1" stop-color="#D1550C"/>
</linearGradient>
</defs>
</svg>
